<svg xmlns="http://www.w3.org/2000/svg" width="124" height="103.641" viewBox="0 0 124 103.641">
  <g id="Group_496" data-name="Group 496" transform="translate(-1001.035 -1120.328)">
    <g id="Group_492" data-name="Group 492" transform="translate(1001.035 1120.328)">
      <g id="Group_490" data-name="Group 490">
        <path id="Path_488" data-name="Path 488" d="M1045.2,1125.845l-40.169,11.643v85.6l39.878-11.729,39.3,11.557h0l40.169-11.643v-85.6L1084.5,1137.4l-39.3-11.557Z" transform="translate(-1002.706 -1122.561)" fill="#fff"/>
        <path id="Path_489" data-name="Path 489" d="M1122.706,1123.44v85.6l-40.169,11.643h0l-39.3-11.558-39.878,11.729v-85.6l40.169-11.643h0l39.3,11.558,39.878-11.729m2.328-3.112-2.986.878-39.22,11.535-38.639-11.363-.652-.192-.652.189-40.169,11.643-1.681.487v90.464l2.986-.878,39.221-11.536,38.639,11.364.653.192.653-.189,40.169-11.643,1.68-.487v-90.464Z" transform="translate(-1001.035 -1120.328)" fill="#839496"/>
      </g>
      <path id="Path_490" data-name="Path 490" d="M1045.2,1125.845l-40.169,11.643v85.6l39.878-11.729,39.3,11.557h0l40.169-11.643v-85.6L1084.5,1137.4l-39.3-11.557Z" transform="translate(-1002.706 -1122.561)" fill="#2fb6e1"/>
      <g id="Group_491" data-name="Group 491" transform="translate(7.279 3.501)">
        <path id="Path_491" data-name="Path 491" d="M1114.734,1134.772v-4.529h-.582v4.7l-12.613,3.725h0v-4.523h-.582v4.692l-12.613,3.725h0v-4.576h-.582v4.568l-12.607-3.707V1134.2h-.582v4.476h0l-6.159-1.816v-.239h-.821l-5.635-1.659v-4.546h-.582v4.377h0l-12.6-3.708h0v-4.743h-.582v4.745l-12.613,3.847h0v-4.692h-.582v4.867l-12.613,3.847h0v-4.873h-.582v5.047l-8.247,2.514v74.93l8.247-2.328v4.832h.582v-4.995h0l12.613-3.557v4.71h.582v-4.873h0l12.613-3.556v4.529h.582v-4.531h0l12.6,3.51h0v4.658h.582v-4.5l12.615,3.51h0v5.211h.582v-5.048l12.607,3.51v5.322h.582v-5.321h0l12.613-3.516v4.995h.582v-5.152h0l12.613-3.516v4.768h.582v-4.931h0l8.831-2.462v-75.681l-8.831,2.608Zm-13.2,5.71,12.613-3.719v20.3l-12.616,3.521v-20.1Zm-.584.175v20.087l-2.276.636v-20.053h0Zm-12.613,3.719.2-.058,8.387-2.473v21.835l4.023-1.123v8.058l-12.613,3.44h0v-29.679Zm-66.555,56.589-6.5,1.65v-37.136l6.5-2.234Zm.582-37.918h0l12.613-4.331v38.9l-12.616,3.2Zm13.2-4.529h0l12.613-4.33v40.079l-12.616,3.2Zm13.2-4.3h0l12.6,3.056h0v10.84h0l-6.642-1.514v21.54l6.642,1.63h0v7.622l-12.607-3.056Zm12.607,15.69v18.07h0l-4.9-1.205v-17.983l4.9,1.118Zm.582.134,12.615,2.876h0v18.3h0l-12.615-3.1Zm13.2,3.009,12.37,2.824.236.052v18.53l-12.607-3.1Zm13.189,2.813h0l.029-.006,12.584-3.434v18.5l-12.613,3.44h0Zm13.2-3.6h0l3.836-1.048v18.5l-3.836,1.048h0Zm-13.976-27.95.2.057v29.76l-12.607-2.875v-30.593Zm-12.994-3.825h0v30.633h0l-12.615-2.876v-10.834l6.456,1.566v-20.3Zm-7.906-2.323v18.594l-4.709-1.141v-18.839Zm-17.9-5.263,12.6,3.708h0v18.868h0l-12.6-3.062h0v-19.515Zm-13.2,3.848,12.613-3.848v19.427l-12.613,4.336h0v-19.915Zm-13.2,4.023,12.613-3.848v19.939l-12.613,4.331h0V1140.78Zm-7.085,2.16,6.5-1.984V1161.4l-6.5,2.235Zm0,71.332v-9.854l6.5-1.65v9.671Zm7.085-2h0v-9.656l12.616-3.2v9.295Zm25.621-7.231-12.423,3.5h0v-9.28l12.616-3.2v8.925Zm13.378,3.458-12.435-3.458-.169-.047h0v-8.859l12.607,3.056v9.309Zm.583-9.167,4.707,1.141v9.5l-4.707-1.309Zm12.615,12.84-6.159-1.711h0V1199.1l-6.453-1.564v-7.618l12.615,3.1h0v19.159Zm.583.163v-19.176l12.607,3.1v19.589Zm13.191,3.51h0v-19.671h0l12.613-3.44v19.6Zm13.2-3.679h0v-19.59h0l5.583-1.525v-22.122l-5.583,1.525h0V1162.4l12.616-3.52v49.779Zm13.2-3.679h0v-49.778l7.087-1.978v49.783Zm7.085-53.569-7.087,1.977v-20.311h0l7.085-2.09Z" transform="translate(-1013.539 -1126.342)" fill="#ccc"/>
      </g>
    </g>
    <path id="Path_492" data-name="Path 492" d="M1073.763,1211.416v-85.074l39.321,11.565v85.073Z" transform="translate(-30.389 -2.513)" opacity="0.18"/>
  </g>
</svg>
