<svg xmlns="http://www.w3.org/2000/svg" xmlns:xlink="http://www.w3.org/1999/xlink" width="126.19" height="108.392" viewBox="0 0 126.19 108.392">
  <defs>
    <linearGradient id="linear-gradient" x1="0.101" y1="0.23" x2="0.992" y2="0.984" gradientUnits="objectBoundingBox">
      <stop offset="0" stop-color="#2fb6e1"/>
      <stop offset="0.509" stop-color="#ee7334"/>
      <stop offset="1" stop-color="#e15b2f"/>
    </linearGradient>
  </defs>
  <path id="Path_493" data-name="Path 493" d="M853.731,834.147H834.718a4.753,4.753,0,0,0-4.753,4.753v8.912h-4.753V824.386h8.318a4.754,4.754,0,0,0,4.753-4.753v-20.2h0v0a4.754,4.754,0,0,0-4.753-4.753H814.517a4.753,4.753,0,0,0-4.753,4.753v9.4H799.55v-9.4h0v0a4.754,4.754,0,0,0-4.753-4.753h-8.318v-9.507H794.8a4.754,4.754,0,0,0,4.753-4.753v-20.2h0v0a4.754,4.754,0,0,0-4.753-4.753H775.783a4.754,4.754,0,0,0-4.753,4.753v20.2a4.754,4.754,0,0,0,4.753,4.753H784.1v9.507h-8.318a4.754,4.754,0,0,0-4.753,4.753v9.4H760.815v-9.4h0v0a4.753,4.753,0,0,0-4.753-4.753H737.048a4.754,4.754,0,0,0-4.753,4.753v20.2a4.754,4.754,0,0,0,4.753,4.753h19.013a4.753,4.753,0,0,0,4.753-4.753v-8.424H771.03v8.424a4.754,4.754,0,0,0,4.753,4.753H784.1v9.761h-8.318a4.753,4.753,0,0,0-4.753,4.753v20.2a4.754,4.754,0,0,0,4.753,4.753H794.8a4.754,4.754,0,0,0,4.753-4.753v-20.2h0v0a4.753,4.753,0,0,0-4.753-4.753h-8.318v-9.761H794.8a4.754,4.754,0,0,0,4.753-4.753v-8.424h10.214v8.424a4.753,4.753,0,0,0,4.753,4.753h8.318v25.8h.481v0h6.649V859.1a4.754,4.754,0,0,0,4.753,4.753h19.013a4.754,4.754,0,0,0,4.753-4.753v-20.2h0v0A4.753,4.753,0,0,0,853.731,834.147Zm-80.325-53.729V763.394h23.767v17.024a2.379,2.379,0,0,1-2.377,2.377H775.783A2.379,2.379,0,0,1,773.406,780.418Zm-14.968,39.215a2.378,2.378,0,0,1-2.377,2.377H737.048a2.38,2.38,0,0,1-2.377-2.377V802.609h23.767Zm38.735,22.445V859.1a2.38,2.38,0,0,1-2.377,2.377H775.783a2.38,2.38,0,0,1-2.377-2.377V842.078Zm0-22.445a2.379,2.379,0,0,1-2.377,2.377H775.783a2.379,2.379,0,0,1-2.377-2.377V802.609h23.767Zm14.967,0V802.609h23.766v17.024a2.379,2.379,0,0,1-2.377,2.377H814.517A2.379,2.379,0,0,1,812.14,819.633ZM856.108,859.1a2.38,2.38,0,0,1-2.377,2.377H834.718a2.38,2.38,0,0,1-2.377-2.377V842.078h23.767Z" transform="translate(-732.295 -755.463)" fill="url(#linear-gradient)"/>
</svg>
