<?xml version="1.0" encoding="utf-8"?>
<!-- Generator: Adobe Illustrator 24.1.0, SVG Export Plug-In . SVG Version: 6.00 Build 0)  -->
<svg version="1.1" id="Layer_1" xmlns="http://www.w3.org/2000/svg" xmlns:xlink="http://www.w3.org/1999/xlink" x="0px" y="0px"
	 viewBox="0 0 161.6 28" style="enable-background:new 0 0 161.6 28;" xml:space="preserve">
<style type="text/css">
	.st0{opacity:0.3;}
	.st1{fill:#657B83;}
	.st2{fill:#FB8C3A;}
	.st3{fill:none;}
	.st4{fill:#2FB6E1;}
	.st5{opacity:0.2;enable-background:new    ;}
	.st6{fill:#586E75;}
	.st7{fill:#FFFFFF;}
	.st8{enable-background:new    ;}
	.st9{fill:#CCCCCC;}
</style>
<g id="Group_421" transform="translate(-32 -187.2)">
	<g id="Group_320">
		<g id="Group_19">
			<g id="onoteLogo" transform="translate(32 193.002)">
				<g id="Group_418" transform="translate(0 -0.002)">
					<g id="Group_416">
						<g id="Group_410">
							<g id="Group_405" transform="translate(0.779 14.517)" class="st0">
								<path id="Path_382" class="st1" d="M0,7.7c25.4-0.1,27.4-2.5,27.4-2.5C26.1,3.5,25.8,0,25.8,0l-0.7-5.8v0
									c0.2,3,0.3,6,0.4,7.9C25.4,2.2,17,6.4,0,7.7z"/>
							</g>
							<g id="Group_409">
								<g id="Group_406" transform="translate(0 2.381)">
									<path id="Path_383" class="st2" d="M26.2,13.9v-0.1c0-0.1,0-0.1,0-0.2v-0.4c0-0.1,0-0.1,0-0.2V13c0-0.1,0-0.2,0-0.2v-0.1
										c0-0.1,0-0.2,0-0.3c0,0,0-0.1,0-0.1c0-0.1,0-0.1,0-0.2v0c0-0.1,0-0.2,0-0.4c0,0,0-0.1,0-0.1c0-0.1,0-0.1,0-0.2
										c0-0.1,0-0.2,0-0.3c0-0.1,0-0.1,0-0.2v0c0-0.1,0-0.1,0-0.2c0,0,0-0.1,0-0.1c0-0.1,0-0.1,0-0.2s0-0.1,0-0.2
										c0-0.1,0-0.2,0-0.3c0-0.1,0-0.2,0-0.2c0-0.1,0-0.1,0-0.2c0-0.2,0-0.3,0-0.5c0,0,0-0.1,0-0.1c0-0.1,0-0.2,0-0.3v0
										c0-0.3,0-0.5,0-0.8c0,0,0-0.1,0-0.1c0-0.1,0-0.2,0-0.3c0-0.1,0-0.3,0-0.4c0-0.1,0-0.1,0-0.2c0-0.1,0-0.2,0-0.2v0l0,0v0
										c-0.3-5.9-0.8-12.2-0.8-12.2L13.8-5.7H13l-1,0l0,0L0-5.6l0.8,25.5c17-1.3,25.4-5.5,25.4-5.5C26.2,14.2,26.2,14.1,26.2,13.9
										z"/>
								</g>
								<g id="Group_408" transform="translate(11.015)">
									<path id="Path_384" class="st3" d="M1.9-0.9L1.9-0.9c-0.1,0-0.2,0-0.2,0c0,0-0.1,0-0.1,0s0,0-0.1,0s0,0-0.1,0c0,0,0,0,0,0
										c0,0-0.1,0-0.1,0c0,0,0,0,0,0h0"/>
									<path id="Path_385" d="M1.9-0.9L1.9-0.9c-0.1,0-0.2,0-0.2,0c0,0-0.1,0-0.1,0s0,0-0.1,0s0,0-0.1,0c0,0,0,0,0,0
										c0,0-0.1,0-0.1,0c0,0,0,0,0,0h0"/>
									<g id="Group_407">
										<path id="Path_386" class="st4" d="M1.6-0.9C1.6-0.9,1.6-0.9,1.6-0.9c-0.1,0-0.1,0-0.1,0s0,0-0.1,0c0,0,0,0,0,0
											c0,0-0.1,0-0.1,0c0,0,0,0,0,0h0C-0.1-1.3,0-2.2,0-2.2c0.1-0.5,0.4-1,1-1.2l0,0c0.1,0,0.2-0.1,0.2-0.1c0-0.3,0-0.5,0.1-0.8
											C1-4.4,0.8-4.7,0.8-5c0.1-0.5,0.7-0.8,1.4-0.8c0.6,0,1.1,0.5,1.1,1.1c0,0.3-0.3,0.6-0.5,0.7v0.1c0,0,0,0.1,0,0.1
											c0,0,0,0.1,0,0.1c0,0,0,0.1,0,0.1c0,0,0,0.1,0,0.1l0,0.2c0,0.1,0,0.1,0,0.2c0.5,0.3,0.7,0.8,0.7,1.4c0,0,0,0.9-1.5,0.9
											H1.8"/>
									</g>
									<path id="Path_387" class="st5" d="M2.7-3.2c0-0.3,0.1-0.6,0.1-0.8l0,0C2.6-3.9,2.3-3.9,2.1-3.9v0L1.9-2.6
										C2.3-2.5,2.7-2.8,2.7-3.2"/>
								</g>
							</g>
						</g>
						<g id="Group_415" transform="translate(27.036 2.381)">
							<g id="Group_411">
								<path id="Path_388" class="st6" d="M14.2-5.8V7.4L5.1-5.8H0v0.3l1.4,2.3V15h4.3V3l8.5,12h4.3V-5.8H14.2z"/>
							</g>
							<g id="Group_412" transform="translate(21.428 5.25)">
								<path id="Path_389" class="st6" d="M7.9-5.8C3.6-5.9,0.1-2.4,0,1.9C0,2,0,2,0,2.1c0,4.4,3.5,7.9,7.8,8c4.4,0,7.9-3.5,8-7.8
									c0-0.1,0-0.1,0-0.2c0.1-4.3-3.4-7.8-7.7-7.9C8.1-5.8,8-5.8,7.9-5.8z M7.9,6C5.8,6,4.2,4.2,4.2,2.1c0,0,0,0,0,0
									C4.2,0,5.8-1.7,7.9-1.7c0,0,0,0,0,0c2,0,3.7,1.7,3.7,3.7c0,0,0,0.1,0,0.1C11.7,4.2,10.1,5.9,7.9,6C8,6,7.9,6,7.9,6z"/>
							</g>
							<g id="Group_413" transform="translate(38.446 1.347)">
								<path id="Path_390" class="st6" d="M6.5-1.6v-4.2L2.6-4.9v3.3H0V2h2.3v11.7h4.2V2H9v-3.5H6.5z"/>
							</g>
							<g id="Group_414" transform="translate(48.586 5.25)">
								<path id="Path_391" class="st6" d="M14.7,1.4c0.2-3.8-2.8-7.1-6.6-7.2c-0.2,0-0.3,0-0.5,0C3.4-5.8,0-2.4,0,1.8
									C0,1.9,0,2,0,2.1c-0.2,4.2,3,7.7,7.2,7.9c0.2,0,0.4,0,0.6,0c1.9,0,3.8-0.4,5.5-1.2v-4C11.8,5.8,10,6.3,8.2,6.3
									c-1.9,0.2-3.6-1-4-2.9h10.3C14.6,2.8,14.7,2.1,14.7,1.4z M4.2,0.3c0.3-1.6,1.8-2.7,3.4-2.6c1.6-0.2,3,1,3.1,2.6
									c0,0,0,0,0,0.1H4.2z"/>
							</g>
						</g>
					</g>
					<g id="Group_417" transform="translate(5.801 8.025)">
						<path id="Path_392" class="st7" d="M7.1-5.8c3.8-0.1,7,3,7.1,6.8c0,0.1,0,0.2,0,0.3c0.1,3.8-3,7-6.8,7.1c-0.1,0-0.2,0-0.3,0
							c-3.8,0.1-7-3-7.1-6.8c0-0.1,0-0.2,0-0.3c-0.1-3.8,3-7,6.8-7.1C6.9-5.8,7-5.8,7.1-5.8z M7.1,5.5c2.3,0,4.1-1.9,4.1-4.1
							c0,0,0-0.1,0-0.1c0.1-2.3-1.7-4.2-4-4.2C4.9-3,3-1.2,2.9,1.1c0,0.1,0,0.1,0,0.2C2.9,3.6,4.7,5.4,7.1,5.5C7,5.5,7,5.5,7.1,5.5
							L7.1,5.5z"/>
					</g>
				</g>
				<g id="Group_419" transform="translate(12.144 4.803)">
					<path id="Path_393" class="st7" d="M0.7-5.7L0.6-4.8C0.4-4.7,0.2-4.7,0-4.9l0.1-0.9c0.1,0,0.2,0,0.4,0.1
						C0.6-5.7,0.7-5.7,0.7-5.7z"/>
				</g>
			</g>
		</g>
	</g>
	<g class="st8">
		<path class="st9" d="M145.7,200c0,6.3-4.6,10.4-11.3,10.4h-6.1v-20.8h6.1C141.2,189.6,145.7,193.7,145.7,200z M132.8,206.3h1.8
			c3.9,0,6.5-2.3,6.5-6.2c0-4-2.6-6.3-6.5-6.3h-1.8V206.3z"/>
		<path class="st9" d="M147.9,202.7c0-4.8,3.6-8.1,8.1-8.1c4.6,0,8.1,3.3,8.1,8.1c0,4.8-3.5,8.1-8.1,8.1
			C151.4,210.8,147.9,207.5,147.9,202.7z M159.6,202.7c0-2.6-1.8-4.1-3.6-4.1c-1.8,0-3.6,1.5-3.6,4.1c0,2.6,1.8,4.1,3.6,4.1
			C157.8,206.8,159.6,205.3,159.6,202.7z"/>
		<path class="st9" d="M174.9,206.8c1.2,0,2.6-0.2,3.9-1.1v4.1c-1.3,0.7-2.9,1.1-4.5,1.1c-4.6,0-8.1-3.4-8.1-8.1
			c0-4.7,3.6-8.1,8.1-8.1c1.6,0,3.2,0.3,4.5,1.1v4.1c-1.3-0.8-2.5-1.2-3.9-1.2c-2.3,0-4.3,1.6-4.3,4.1
			C170.6,205.2,172.6,206.8,174.9,206.8z"/>
		<path class="st9" d="M192.6,195.8v3.8c-1.1-0.8-3-1.4-4.7-1.4c-1.4,0-2.2,0.5-2.2,1.2c0,0.8,0.9,1.2,2.7,1.6
			c2.5,0.6,5.2,1.5,5.2,4.7c0,3-2.4,5-6.6,5c-2.2,0-4.2-0.6-5.5-1.5v-4.1c1.3,1.1,3.1,1.9,5.3,1.9c1.6,0,2.5-0.5,2.5-1.3
			c0-0.9-1.1-1.3-3.1-1.8c-2.5-0.7-4.7-1.7-4.7-4.5c0-2.8,2.3-4.9,6.3-4.9C189.5,194.6,191.4,195,192.6,195.8z"/>
	</g>
</g>
</svg>
