<?xml version="1.0" encoding="utf-8"?>
<!-- Generator: Adobe Illustrator 24.1.0, SVG Export Plug-In . SVG Version: 6.00 Build 0)  -->
<svg version="1.1" id="Layer_1" xmlns="http://www.w3.org/2000/svg" xmlns:xlink="http://www.w3.org/1999/xlink" x="0px" y="0px"
	 viewBox="0 0 103.26 32" style="enable-background:new 0 0 103.26 32;" xml:space="preserve">
<style type="text/css">
	.st0{opacity:0.3;}
	.st1{fill:#657B83;}
	.st2{fill:#FB8C3A;}
	.st3{fill:none;}
	.st4{fill:#2FB6E1;}
	.st5{opacity:0.2;}
	.st6{fill:#586E75;}
	.st7{fill:#FFFFFF;}
</style>
<g>
	<g>
		<g>
			<g>
				<g class="st0">
					<path class="st1" d="M0.89,32c29.06-0.15,31.33-2.89,31.33-2.89c-1.46-1.89-1.89-5.94-1.89-5.94l-0.8-6.58l0,0.04
						c0.19,3.48,0.36,6.85,0.41,9.08C29.95,25.72,20.31,30.57,0.89,32z"/>
				</g>
				<g>
					<g>
						<path class="st2" d="M29.94,25.29c0-0.05,0-0.1,0-0.15c0-0.07,0-0.13-0.01-0.2c0-0.05,0-0.09,0-0.14c0-0.05,0-0.09,0-0.14
							c0-0.04,0-0.09,0-0.13c0-0.02,0-0.04,0-0.05c0-0.06,0-0.12-0.01-0.18c0-0.01,0-0.01,0-0.02c0-0.02,0-0.03,0-0.05
							c0-0.09-0.01-0.18-0.01-0.28c0-0.04,0-0.07,0-0.11c0-0.12-0.01-0.25-0.01-0.38c0-0.05,0-0.09-0.01-0.14
							c0-0.08-0.01-0.17-0.01-0.25c0-0.01,0-0.01,0-0.02c-0.01-0.14-0.01-0.27-0.02-0.41c0-0.05,0-0.09-0.01-0.14
							c0-0.08-0.01-0.16-0.01-0.24c-0.01-0.11-0.01-0.22-0.02-0.33c0-0.08-0.01-0.17-0.01-0.25c0-0.01,0-0.03,0-0.04
							c0-0.07-0.01-0.14-0.01-0.22c0-0.05,0-0.1-0.01-0.14c0-0.06-0.01-0.12-0.01-0.18c0-0.06-0.01-0.12-0.01-0.18
							c-0.01-0.11-0.01-0.23-0.02-0.34c0-0.09-0.01-0.19-0.01-0.28c0-0.06-0.01-0.12-0.01-0.18c-0.01-0.2-0.02-0.39-0.03-0.59
							c0-0.05-0.01-0.1-0.01-0.16c-0.01-0.1-0.01-0.21-0.02-0.31c0-0.01,0-0.02,0-0.03c-0.02-0.31-0.03-0.61-0.05-0.92
							c0-0.05-0.01-0.11-0.01-0.16c-0.01-0.11-0.01-0.22-0.02-0.32c-0.01-0.16-0.02-0.32-0.03-0.49c0-0.07-0.01-0.14-0.01-0.21
							c-0.01-0.09-0.01-0.19-0.02-0.28v-0.01c0,0,0,0,0,0c0-0.01,0-0.02,0-0.03c-0.38-6.75-0.86-13.89-0.86-13.89L15.72,2.8
							L14.87,2.8l-1.16,0.01h0L0,2.9L0.89,32c19.42-1.43,29.06-6.28,29.06-6.28C29.94,25.58,29.94,25.43,29.94,25.29z"/>
					</g>
					<g>
						<path class="st3" d="M14.72,5.58c-0.01,0-0.03,0-0.04,0c-0.02,0-0.04,0-0.05,0c-0.05,0-0.11-0.01-0.17-0.01
							c-0.03,0-0.06-0.01-0.09-0.01c-0.03,0-0.05-0.01-0.08-0.01c-0.03,0-0.05-0.01-0.08-0.01c-0.01,0-0.03,0-0.04-0.01
							c-0.03-0.01-0.07-0.01-0.1-0.02c-0.01,0-0.02,0-0.03-0.01c-0.01,0-0.01,0-0.02,0c0,0,0,0,0,0s0,0,0,0"/>
						<path d="M14.72,5.58c-0.01,0-0.03,0-0.04,0c-0.02,0-0.04,0-0.05,0c-0.05,0-0.11-0.01-0.17-0.01c-0.03,0-0.06-0.01-0.09-0.01
							c-0.03,0-0.05-0.01-0.08-0.01c-0.03,0-0.05-0.01-0.08-0.01c-0.01,0-0.03,0-0.04-0.01c-0.03-0.01-0.07-0.01-0.1-0.02
							c-0.01,0-0.02,0-0.03-0.01c-0.01,0-0.01,0-0.02,0"/>
						<g>
							<path class="st4" d="M14.45,5.56c-0.03,0-0.06-0.01-0.09-0.01c-0.03,0-0.05-0.01-0.08-0.01c-0.03,0-0.05-0.01-0.08-0.01
								c-0.01,0-0.03,0-0.04-0.01c-0.03-0.01-0.07-0.01-0.1-0.02c-0.01,0-0.02,0-0.03-0.01c-0.01,0-0.01,0-0.02,0c0,0,0,0,0,0
								c0,0,0,0,0,0c-1.48-0.32-1.42-1.36-1.42-1.36c0.06-0.83,0.76-1.2,1.11-1.33h0c0.12-0.04,0.2-0.06,0.2-0.06
								c0-0.39,0.11-0.89,0.11-0.89c-0.32-0.25-0.51-0.61-0.45-0.97c0.08-0.61,0.85-0.95,1.58-0.87c0.79,0.08,1.31,0.66,1.26,1.26
								c-0.03,0.34-0.27,0.62-0.62,0.78c0,0.01,0,0.02,0,0.04c0,0.01,0,0.02,0,0.03c0,0.03,0,0.06-0.01,0.1c0,0.03,0,0.06-0.01,0.09
								c0,0.04-0.01,0.08-0.01,0.12c0,0.03,0,0.06-0.01,0.09c-0.01,0.09-0.02,0.18-0.03,0.27c-0.01,0.08-0.02,0.15-0.04,0.22
								c0,0,0.92,0.62,0.77,1.58c0,0-0.04,1.05-1.74,0.98c-0.01,0-0.03,0-0.04,0c-0.02,0-0.04,0-0.05,0"/>
						</g>
						<path class="st5" d="M15.69,3.02c0.07-0.36,0.1-0.9,0.1-0.97l0,0c-0.24,0.11-0.53,0.16-0.83,0.14l0,0.01l-0.18,1.51
							C14.76,3.71,15.49,3.83,15.69,3.02"/>
					</g>
				</g>
			</g>
			<g>
				<g>
					<path class="st6" d="M47.18,2.72v15.12L36.77,2.72h-5.87v0.35l1.64,2.62v20.78h4.96V12.74l9.67,13.72h4.96V2.72H47.18z"/>
				</g>
				<g>
					<path class="st6" d="M64.43,8.72c-5.1,0-9.04,3.95-9.04,9.04s3.95,9.08,9.04,9.08c5.1,0,9.04-3.98,9.04-9.08
						S69.53,8.72,64.43,8.72z M64.43,22.2c-2.41,0-4.23-2.03-4.23-4.43s1.82-4.4,4.23-4.4c2.44,0,4.19,1.99,4.19,4.4
						S66.87,22.2,64.43,22.2z"/>
				</g>
				<g>
					<path class="st6" d="M82.24,9.07V4.26l-4.47,1.01v3.81h-2.93v4.05h2.65v13.34h4.75V13.12h2.93V9.07H82.24z"/>
				</g>
				<g>
					<path class="st6" d="M103.26,17c0-4.5-3.11-8.28-8.14-8.28c-5.03,0-8.69,3.95-8.69,9.04c0,5.41,3.81,9.08,8.97,9.08
						c2.51,0,4.75-0.56,6.29-1.36v-4.57c-1.57,1.01-3.74,1.64-5.9,1.64c-2.44,0-4.19-1.29-4.61-3.28h11.8
						C103.12,18.71,103.26,17.73,103.26,17z M91.18,15.67c0.24-1.64,1.82-3,3.91-3c2.03,0,3.53,1.22,3.6,3H91.18z"/>
				</g>
			</g>
		</g>
		<g>
			<path class="st7" d="M14.7,9.17c4.59,0,8.07,3.5,8.07,8.09c0,4.59-3.48,8.09-8.07,8.09s-8.07-3.5-8.07-8.09
				C6.63,12.67,10.11,9.17,14.7,9.17z M14.7,22.08c2.65,0,4.68-2.14,4.68-4.82c0-2.65-2.03-4.82-4.68-4.82
				c-2.67,0-4.7,2.17-4.7,4.82C10,19.94,12.03,22.08,14.7,22.08z"/>
		</g>
	</g>
	<g>
		<path class="st7" d="M14.72,5.58l-0.15,1.06c0,0-0.35,0.23-0.69-0.08l0.14-1.07c0.13,0.03,0.28,0.05,0.43,0.07
			C14.54,5.57,14.63,5.58,14.72,5.58z"/>
	</g>
</g>
</svg>
