<svg xmlns="http://www.w3.org/2000/svg" xmlns:xlink="http://www.w3.org/1999/xlink" width="127" height="156.619" viewBox="0 0 127 156.619">
  <defs>
    <linearGradient id="linear-gradient" x1="0.5" y1="1" x2="0.5" gradientUnits="objectBoundingBox">
      <stop offset="0" stop-color="#fff" stop-opacity="0"/>
      <stop offset="0.026" stop-color="#e5f6fb" stop-opacity="0.122"/>
      <stop offset="0.07" stop-color="#bfe8f5" stop-opacity="0.302"/>
      <stop offset="0.12" stop-color="#9ddcf0" stop-opacity="0.471"/>
      <stop offset="0.175" stop-color="#7fd2ec" stop-opacity="0.616"/>
      <stop offset="0.235" stop-color="#65c9e8" stop-opacity="0.737"/>
      <stop offset="0.303" stop-color="#51c2e5" stop-opacity="0.835"/>
      <stop offset="0.382" stop-color="#41bce3" stop-opacity="0.91"/>
      <stop offset="0.48" stop-color="#37b8e2" stop-opacity="0.961"/>
      <stop offset="0.618" stop-color="#30b6e1" stop-opacity="0.992"/>
      <stop offset="1" stop-color="#2fb6e1"/>
    </linearGradient>
    <linearGradient id="linear-gradient-2" x1="0.5" y1="1" x2="0.5" gradientUnits="objectBoundingBox">
      <stop offset="0" stop-color="#fff" stop-opacity="0"/>
      <stop offset="0.058" stop-color="#e8ebeb" stop-opacity="0.208"/>
      <stop offset="0.129" stop-color="#d1d7d7" stop-opacity="0.42"/>
      <stop offset="0.207" stop-color="#bec6c6" stop-opacity="0.6"/>
      <stop offset="0.294" stop-color="#aeb8b8" stop-opacity="0.749"/>
      <stop offset="0.393" stop-color="#a1aeae" stop-opacity="0.863"/>
      <stop offset="0.51" stop-color="#99a6a6" stop-opacity="0.941"/>
      <stop offset="0.665" stop-color="#94a2a2" stop-opacity="0.988"/>
      <stop offset="1" stop-color="#93a1a1"/>
    </linearGradient>
    <linearGradient id="linear-gradient-3" x1="0.5" y1="1" x2="0.5" gradientUnits="objectBoundingBox">
      <stop offset="0" stop-color="#fff" stop-opacity="0"/>
      <stop offset="0.07" stop-color="#e2f5fa" stop-opacity="0.137"/>
      <stop offset="0.2" stop-color="#b3e4f4" stop-opacity="0.365"/>
      <stop offset="0.332" stop-color="#8ad6ee" stop-opacity="0.557"/>
      <stop offset="0.465" stop-color="#69cae9" stop-opacity="0.718"/>
      <stop offset="0.597" stop-color="#4fc1e5" stop-opacity="0.843"/>
      <stop offset="0.731" stop-color="#3dbbe3" stop-opacity="0.929"/>
      <stop offset="0.864" stop-color="#32b7e1" stop-opacity="0.984"/>
      <stop offset="1" stop-color="#2fb6e1"/>
    </linearGradient>
  </defs>
  <g id="Group_483" data-name="Group 483" transform="translate(-938.048 -374.154)">
    <g id="Group_440" data-name="Group 440" transform="translate(1002.181 483.381)">
      <path id="Path_438" data-name="Path 438" d="M1079.643,581.784a11.615,11.615,0,1,1-11.615,11.615,11.628,11.628,0,0,1,11.615-11.615m0-1.742A13.357,13.357,0,1,0,1093,593.4a13.357,13.357,0,0,0-13.357-13.357Z" transform="translate(-1055.946 -569.703)" fill="#839496"/>
      <g id="Group_439" data-name="Group 439" transform="translate(0 0)">
        <g id="Group_437" data-name="Group 437">
          <path id="Path_439" data-name="Path 439" d="M1076.291,573.63a15.68,15.68,0,1,1-16.479,14.838,15.679,15.679,0,0,1,16.479-14.838m.183-3.48a19.164,19.164,0,1,0,18.134,20.141,19.186,19.186,0,0,0-18.134-20.141Z" transform="translate(-1051.762 -565.544)" fill="#839496"/>
          <g id="Group_430" data-name="Group 430">
            <g id="Group_428" data-name="Group 428" transform="translate(20.037)">
              <path id="Path_440" data-name="Path 440" d="M1091.618,569.093l-5.567-.292.925-6.563,4.408.231Z" transform="translate(-1084.27 -562.239)" fill="#839496"/>
              <path id="Path_441" data-name="Path 441" d="M1088.552,632.335l-5.568-.292.234,6.624,4.407.231Z" transform="translate(-1082.984 -591.505)" fill="#839496"/>
            </g>
            <g id="Group_429" data-name="Group 429" transform="translate(0 20.036)">
              <path id="Path_442" data-name="Path 442" d="M1055.336,596.74l-.292,5.567-6.563-.925.231-4.408Z" transform="translate(-1048.482 -596.74)" fill="#839496"/>
              <path id="Path_443" data-name="Path 443" d="M1118.578,599.806l-.292,5.567,6.623-.234.231-4.408Z" transform="translate(-1077.749 -598.026)" fill="#839496"/>
            </g>
          </g>
          <g id="Group_433" data-name="Group 433" transform="translate(1.82 1.805)">
            <g id="Group_431" data-name="Group 431" transform="translate(8.856)">
              <path id="Path_444" data-name="Path 444" d="M1074.375,570.9l-4.922,2.617-2.587-6.1,3.9-2.072Z" transform="translate(-1066.866 -565.347)" fill="#839496"/>
              <path id="Path_445" data-name="Path 445" d="M1103.747,626.642l-4.923,2.617,3.612,5.557,3.9-2.072Z" transform="translate(-1080.265 -591.046)" fill="#839496"/>
            </g>
            <g id="Group_432" data-name="Group 432" transform="translate(0 8.87)">
              <path id="Path_446" data-name="Path 446" d="M1057.173,612.579l2.617,4.922-6.1,2.587-2.072-3.9Z" transform="translate(-1051.616 -594.02)" fill="#839496"/>
              <path id="Path_447" data-name="Path 447" d="M1112.911,583.208l2.617,4.923,5.557-3.612-2.072-3.9Z" transform="translate(-1077.315 -580.621)" fill="#839496"/>
            </g>
          </g>
          <g id="Group_436" data-name="Group 436" transform="translate(2.512 2.514)">
            <g id="Group_434" data-name="Group 434" transform="translate(0 6.79)">
              <path id="Path_448" data-name="Path 448" d="M1061.052,581.267l-2.954,4.728L1052.807,582l2.339-3.743Z" transform="translate(-1052.807 -578.26)" fill="#839496"/>
              <path id="Path_449" data-name="Path 449" d="M1114.555,614.482l-2.955,4.728,5.907,3.006,2.339-3.743Z" transform="translate(-1077.457 -593.447)" fill="#839496"/>
            </g>
            <g id="Group_435" data-name="Group 435" transform="translate(6.815)">
              <path id="Path_450" data-name="Path 450" d="M1067.548,625.361l4.728,2.954-3.991,5.291-3.743-2.339Z" transform="translate(-1064.542 -591.218)" fill="#839496"/>
              <path id="Path_451" data-name="Path 451" d="M1100.763,571.859l4.728,2.954,3.006-5.906-3.743-2.339Z" transform="translate(-1079.728 -566.568)" fill="#839496"/>
            </g>
          </g>
        </g>
        <g id="Group_438" data-name="Group 438" transform="translate(4.579 4.548)">
          <path id="Path_452" data-name="Path 452" d="M1059.872,588.414a15.68,15.68,0,1,1,14.838,16.479,15.68,15.68,0,0,1-14.838-16.479m-3.48-.182a19.164,19.164,0,1,0,20.141-18.135,19.187,19.187,0,0,0-20.141,18.135Z" transform="translate(-1056.366 -570.07)" fill="#839496"/>
        </g>
      </g>
    </g>
    <path id="Path_453" data-name="Path 453" d="M1010.772,394.6l-20.931-20.442L968.6,394.6h10.115v27.557h21.946V394.6Z" transform="translate(-12.808 0)" fill="url(#linear-gradient)"/>
    <path id="Path_454" data-name="Path 454" d="M1056.318,431.779,1043.641,419.4l-12.866,12.381h6.126v16.69h13.291v-16.69Z" transform="translate(-38.877 -18.97)" fill="url(#linear-gradient-2)"/>
    <path id="Path_455" data-name="Path 455" d="M1119.045,469.05l-25.91-25.305-26.3,25.305h12.521v34.113h27.166V469.05Z" transform="translate(-53.997 -29.177)" fill="url(#linear-gradient-3)"/>
    <g id="Group_467" data-name="Group 467" transform="translate(938.048 429.45)">
      <g id="Group_466" data-name="Group 466">
        <g id="Group_446" data-name="Group 446">
          <path id="Path_456" data-name="Path 456" d="M984.893,481.667a30.2,30.2,0,1,1-34.551,25.1,30.232,30.232,0,0,1,34.551-25.1m.636-4.015a34.263,34.263,0,1,0,28.481,39.2,34.263,34.263,0,0,0-28.481-39.2Z" transform="translate(-941.341 -472.665)" fill="#839496"/>
          <g id="Group_442" data-name="Group 442" transform="translate(29.997)">
            <g id="Group_441" data-name="Group 441">
              <path id="Path_457" data-name="Path 457" d="M1014.2,478.186l-6.956-1.1,1.956-7.711,5.521.874Z" transform="translate(-997.055 -469.373)" fill="#839496"/>
              <path id="Path_458" data-name="Path 458" d="M990.225,587.919l6.955,1.1-1.956,7.711-5.522-.875Z" transform="translate(-989.702 -519.076)" fill="#839496"/>
            </g>
          </g>
          <g id="Group_443" data-name="Group 443" transform="translate(0 29.997)">
            <path id="Path_459" data-name="Path 459" d="M1056.595,545.52l1.1-6.956,7.711,1.957-.875,5.521Z" transform="translate(-987.751 -528.379)" fill="#839496"/>
            <path id="Path_460" data-name="Path 460" d="M946.861,521.549l-1.1,6.955-7.711-1.956.875-5.521Z" transform="translate(-938.048 -521.027)" fill="#839496"/>
          </g>
          <g id="Group_445" data-name="Group 445" transform="translate(29.997)">
            <g id="Group_444" data-name="Group 444">
              <path id="Path_461" data-name="Path 461" d="M1014.2,478.186l-6.956-1.1,1.956-7.711,5.521.874Z" transform="translate(-997.055 -469.373)" fill="#839496"/>
              <path id="Path_462" data-name="Path 462" d="M990.225,587.919l6.955,1.1-1.956,7.711-5.522-.875Z" transform="translate(-989.702 -519.076)" fill="#839496"/>
            </g>
          </g>
        </g>
        <g id="Group_452" data-name="Group 452" transform="translate(4.563 4.563)">
          <path id="Path_463" data-name="Path 463" d="M962.42,487.065a30.2,30.2,0,1,1-6.681,42.181,30.232,30.232,0,0,1,6.681-42.181m-2.389-3.289a34.263,34.263,0,1,0,47.859,7.58,34.262,34.262,0,0,0-47.859-7.58Z" transform="translate(-945.905 -477.23)" fill="#839496"/>
          <g id="Group_448" data-name="Group 448" transform="translate(9.15 1.183)">
            <g id="Group_447" data-name="Group 447">
              <path id="Path_464" data-name="Path 464" d="M971.428,485.25l-5.7,4.139-4.069-6.836,4.523-3.286Z" transform="translate(-961.661 -479.268)" fill="#839496"/>
              <path id="Path_465" data-name="Path 465" d="M1031.339,579.909l5.7-4.139,4.07,6.836-4.523,3.286Z" transform="translate(-990.875 -519.728)" fill="#839496"/>
            </g>
          </g>
          <g id="Group_449" data-name="Group 449" transform="translate(1.184 9.15)">
            <path id="Path_466" data-name="Path 466" d="M1048.585,502.752l-4.139-5.7,6.836-4.069,3.286,4.523Z" transform="translate(-988.403 -492.986)" fill="#839496"/>
            <path id="Path_467" data-name="Path 467" d="M953.926,562.664l4.139,5.7-6.836,4.069-3.286-4.523Z" transform="translate(-947.943 -522.2)" fill="#839496"/>
          </g>
          <g id="Group_451" data-name="Group 451" transform="translate(9.15 1.183)">
            <g id="Group_450" data-name="Group 450">
              <path id="Path_468" data-name="Path 468" d="M971.428,485.25l-5.7,4.139-4.069-6.836,4.523-3.286Z" transform="translate(-961.661 -479.268)" fill="#839496"/>
              <path id="Path_469" data-name="Path 469" d="M1031.339,579.909l5.7-4.139,4.07,6.836-4.523,3.286Z" transform="translate(-990.875 -519.728)" fill="#839496"/>
            </g>
          </g>
        </g>
        <g id="Group_458" data-name="Group 458" transform="translate(0.441 0.441)">
          <path id="Path_470" data-name="Path 470" d="M972.861,482.19a30.2,30.2,0,1,1-22,36.607,30.233,30.233,0,0,1,22-36.607m-.983-3.944a34.263,34.263,0,1,0,41.534,24.956,34.263,34.263,0,0,0-41.534-24.956Z" transform="translate(-941.779 -473.104)" fill="#839496"/>
          <g id="Group_454" data-name="Group 454" transform="translate(26.263)">
            <g id="Group_453" data-name="Group 453">
              <path id="Path_471" data-name="Path 471" d="M992.076,477.644l-6.833,1.7-1.212-7.863,5.424-1.352Z" transform="translate(-984.031 -470.132)" fill="#839496"/>
              <path id="Path_472" data-name="Path 472" d="M1011.934,588.171l6.833-1.7,1.212,7.863-5.424,1.352Z" transform="translate(-995.73 -518.908)" fill="#839496"/>
            </g>
          </g>
          <g id="Group_455" data-name="Group 455" transform="translate(0 26.263)">
            <path id="Path_473" data-name="Path 473" d="M1056.847,523.4l-1.7-6.833,7.863-1.212,1.353,5.424Z" transform="translate(-987.583 -515.355)" fill="#839496"/>
            <path id="Path_474" data-name="Path 474" d="M946.319,543.259l1.7,6.833L940.16,551.3l-1.352-5.424Z" transform="translate(-938.808 -527.054)" fill="#839496"/>
          </g>
          <g id="Group_457" data-name="Group 457" transform="translate(26.263)">
            <g id="Group_456" data-name="Group 456">
              <path id="Path_475" data-name="Path 475" d="M992.076,477.644l-6.833,1.7-1.212-7.863,5.424-1.352Z" transform="translate(-984.031 -470.132)" fill="#839496"/>
              <path id="Path_476" data-name="Path 476" d="M1011.934,588.171l6.833-1.7,1.212,7.863-5.424,1.352Z" transform="translate(-995.73 -518.908)" fill="#839496"/>
            </g>
          </g>
        </g>
        <g id="Group_465" data-name="Group 465" transform="translate(4.067 4.067)">
          <path id="Path_477" data-name="Path 477" d="M988.869,490.295a26.133,26.133,0,1,1-29.9,21.723,26.162,26.162,0,0,1,29.9-21.723m.273-1.721a27.875,27.875,0,1,0,23.171,31.893,27.876,27.876,0,0,0-23.171-31.893Z" transform="translate(-950.02 -481.345)" fill="#839496"/>
          <g id="Group_464" data-name="Group 464">
            <path id="Path_478" data-name="Path 478" d="M995.722,485.608a30.2,30.2,0,1,1-41.438,10.332,30.232,30.232,0,0,1,41.438-10.332m2.094-3.484a34.263,34.263,0,1,0,11.723,47.016,34.263,34.263,0,0,0-11.723-47.016Z" transform="translate(-945.407 -476.732)" fill="#839496"/>
            <g id="Group_460" data-name="Group 460" transform="translate(12.355)">
              <g id="Group_459" data-name="Group 459">
                <path id="Path_479" data-name="Path 479" d="M1033.179,486.42l-6.036-3.627,4.7-6.417,4.792,2.879Z" transform="translate(-991.825 -476.376)" fill="#839496"/>
                <path id="Path_480" data-name="Path 480" d="M969.785,578.8l6.036,3.627-4.7,6.417-4.792-2.879Z" transform="translate(-966.327 -519.318)" fill="#839496"/>
              </g>
            </g>
            <g id="Group_461" data-name="Group 461" transform="translate(0 12.355)">
              <path id="Path_481" data-name="Path 481" d="M1047.471,564.5l3.627-6.036,6.417,4.7-2.879,4.792Z" transform="translate(-987.993 -523.15)" fill="#839496"/>
              <path id="Path_482" data-name="Path 482" d="M955.1,501.11l-3.627,6.036-6.417-4.7,2.879-4.792Z" transform="translate(-945.052 -497.651)" fill="#839496"/>
            </g>
            <g id="Group_463" data-name="Group 463" transform="translate(12.355)">
              <g id="Group_462" data-name="Group 462">
                <path id="Path_483" data-name="Path 483" d="M1033.179,486.42l-6.036-3.627,4.7-6.417,4.792,2.879Z" transform="translate(-991.825 -476.376)" fill="#839496"/>
                <path id="Path_484" data-name="Path 484" d="M969.785,578.8l6.036,3.627-4.7,6.417-4.792-2.879Z" transform="translate(-966.327 -519.318)" fill="#839496"/>
              </g>
            </g>
          </g>
        </g>
      </g>
      <path id="Path_485" data-name="Path 485" d="M995.895,539.706a12.486,12.486,0,1,1,12.486-12.486A12.5,12.5,0,0,1,995.895,539.706Zm0-23.229a10.744,10.744,0,1,0,10.744,10.744A10.755,10.755,0,0,0,995.895,516.476Z" transform="translate(-957.067 -488.391)" fill="#839496"/>
    </g>
  </g>
</svg>
